<svg width="96" height="96" viewBox="0 0 96 96" fill="none" xmlns="http://www.w3.org/2000/svg">
<path d="M48 18L56.6603 33L48 48H30.6795L22.0193 33L30.6795 18H48Z" fill="#FFDA00"/>
<path d="M73.9808 33L82.641 48L73.9808 63H56.6602L48 48L56.6602 33H73.9808Z" fill="#FFB000"/>
<path d="M48 48L56.6603 63L48 78H30.6795L22.0193 63L30.6795 48H48Z" fill="#FF7300"/>
<path opacity="0.4" d="M39.3398 33L48 48L39.3398 63H22.0193L13.359 48L22.0193 33H39.3398Z" fill="#FFC200"/>
<path opacity="0.4" d="M65.3205 18L73.9807 33L65.3205 48H48L39.3397 33L48 18H65.3205Z" fill="#FFEE4D"/>
<path opacity="0.4" d="M65.3205 48L73.9807 63L65.3205 78H48L39.3397 63L48 48H65.3205Z" fill="#FF9700"/>
<path fill-rule="evenodd" clip-rule="evenodd" d="M58.8258 72.2987C59.1477 72.2987 59.4624 72.3942 59.7301 72.5731C59.9977 72.752 60.2063 73.0062 60.3295 73.3037C60.4527 73.6011 60.4849 73.9284 60.4221 74.2441C60.3592 74.5599 60.2042 74.8499 59.9765 75.0775C59.7489 75.3051 59.4588 75.4601 59.1431 75.5229C58.8273 75.5857 58.5 75.5534 58.2026 75.4302C57.9052 75.307 57.651 75.0984 57.4722 74.8307C57.2933 74.563 57.1979 74.2482 57.1979 73.9263C57.1979 73.7126 57.24 73.5009 57.3218 73.3034C57.4037 73.1059 57.5236 72.9265 57.6747 72.7754C57.8259 72.6242 58.0054 72.5043 58.2028 72.4225C58.4003 72.3408 58.612 72.2987 58.8258 72.2987Z" fill="#231F20"/>
<path fill-rule="evenodd" clip-rule="evenodd" d="M65.4573 67.3269C65.7792 67.3269 66.0939 67.4224 66.3616 67.6013C66.6292 67.7801 66.8378 68.0344 66.961 68.3318C67.0842 68.6292 67.1164 68.9564 67.0536 69.2722C66.9908 69.5879 66.8358 69.8779 66.6082 70.1055C66.3805 70.3332 66.0905 70.4882 65.7748 70.551C65.4591 70.6139 65.1318 70.5816 64.8344 70.4585C64.537 70.3353 64.2828 70.1267 64.1039 69.8591C63.925 69.5914 63.8295 69.2768 63.8295 68.9549C63.8294 68.7411 63.8715 68.5294 63.9533 68.3319C64.0351 68.1343 64.155 67.9549 64.3062 67.8037C64.4574 67.6525 64.6368 67.5326 64.8343 67.4508C65.0318 67.369 65.2435 67.3269 65.4573 67.3269Z" fill="#231F20"/>
<path fill-rule="evenodd" clip-rule="evenodd" d="M58.4895 67.1643C58.7037 67.1643 58.9131 67.2278 59.0912 67.3468C59.2693 67.4658 59.4081 67.635 59.4901 67.8329C59.5721 68.0308 59.5935 68.2485 59.5517 68.4586C59.5099 68.6687 59.4068 68.8616 59.2553 69.0131C59.1039 69.1646 58.9109 69.2677 58.7008 69.3095C58.4907 69.3513 58.273 69.3298 58.0751 69.2479C57.8772 69.1659 57.708 69.0271 57.589 68.849C57.47 68.6709 57.4065 68.4615 57.4065 68.2473C57.4065 68.1051 57.4345 67.9642 57.4889 67.8328C57.5433 67.7014 57.6231 67.582 57.7236 67.4814C57.8242 67.3808 57.9436 67.3011 58.075 67.2467C58.2064 67.1922 58.3473 67.1643 58.4895 67.1643Z" fill="#231F20"/>
<path fill-rule="evenodd" clip-rule="evenodd" d="M37.0381 54.1415C36.7162 54.1416 36.4015 54.0461 36.1338 53.8673C35.8661 53.6884 35.6574 53.4342 35.5342 53.1368C35.411 52.8394 35.3788 52.5121 35.4416 52.1964C35.5044 51.8806 35.6594 51.5906 35.8871 51.3629C36.1147 51.1353 36.4047 50.9803 36.7205 50.9175C37.0362 50.8547 37.3635 50.887 37.661 51.0102C37.9584 51.1334 38.2126 51.3421 38.3914 51.6097C38.5702 51.8774 38.6657 52.1922 38.6656 52.5141C38.6655 52.9457 38.494 53.3596 38.1888 53.6648C37.8836 53.97 37.4697 54.1415 37.0381 54.1415Z" fill="#231F20"/>
<path fill-rule="evenodd" clip-rule="evenodd" d="M30.4061 59.1133C30.0842 59.1133 29.7695 59.0178 29.5019 58.8389C29.2343 58.6601 29.0257 58.4059 28.9025 58.1085C28.7793 57.8111 28.7471 57.4838 28.8099 57.1681C28.8728 56.8524 29.0278 56.5624 29.2554 56.3348C29.483 56.1071 29.773 55.9521 30.0887 55.8893C30.4044 55.8265 30.7317 55.8587 31.0291 55.9819C31.3265 56.1051 31.5807 56.3136 31.7596 56.5813C31.9384 56.8489 32.0339 57.1636 32.034 57.4855C32.0339 57.9172 31.8624 58.3312 31.5571 58.6365C31.2518 58.9418 30.8378 59.1133 30.4061 59.1133Z" fill="#231F20"/>
<path fill-rule="evenodd" clip-rule="evenodd" d="M37.374 59.2761C37.1598 59.2761 36.9504 59.2126 36.7723 59.0936C36.5942 58.9746 36.4554 58.8054 36.3735 58.6076C36.2915 58.4097 36.27 58.1919 36.3118 57.9818C36.3536 57.7717 36.4568 57.5788 36.6082 57.4273C36.7597 57.2758 36.9527 57.1727 37.1627 57.1309C37.3728 57.0891 37.5906 57.1106 37.7885 57.1925C37.9864 57.2745 38.1555 57.4133 38.2745 57.5914C38.3935 57.7695 38.457 57.9789 38.457 58.1931C38.457 58.3353 38.429 58.4762 38.3746 58.6076C38.3202 58.739 38.2404 58.8584 38.1398 58.9589C38.0393 59.0595 37.9199 59.1393 37.7885 59.1937C37.6571 59.2481 37.5162 59.2761 37.374 59.2761Z" fill="#231F20"/>
<path fill-rule="evenodd" clip-rule="evenodd" d="M32.9196 27.2952C32.5977 27.2951 32.283 27.3905 32.0153 27.5694C31.7476 27.7482 31.539 28.0023 31.4157 28.2997C31.2925 28.5971 31.2602 28.9244 31.323 29.2401C31.3857 29.5559 31.5407 29.8459 31.7683 30.0736C31.9959 30.3012 32.2859 30.4563 32.6016 30.5191C32.9174 30.582 33.2446 30.5498 33.5421 30.4266C33.8395 30.3035 34.0937 30.0949 34.2726 29.8273C34.4515 29.5596 34.547 29.2449 34.547 28.923C34.547 28.4914 34.3756 28.0774 34.0704 27.7721C33.7652 27.4668 33.3513 27.2953 32.9196 27.2952Z" fill="#231F20"/>
<path fill-rule="evenodd" clip-rule="evenodd" d="M33.4206 20.4666C33.0987 20.4665 32.784 20.562 32.5163 20.7408C32.2486 20.9196 32.04 21.1739 31.9168 21.4713C31.7936 21.7687 31.7613 22.096 31.8241 22.4117C31.8869 22.7275 32.042 23.0175 32.2696 23.2451C32.4972 23.4728 32.7873 23.6278 33.103 23.6906C33.4188 23.7534 33.7461 23.7211 34.0435 23.5979C34.3409 23.4747 34.5951 23.266 34.7739 22.9983C34.9527 22.7306 35.0482 22.4159 35.0481 22.094C35.048 21.6624 34.8765 21.2485 34.5713 20.9434C34.2661 20.6382 33.8522 20.4667 33.4206 20.4666Z" fill="#231F20"/>
<path fill-rule="evenodd" clip-rule="evenodd" d="M40.16 22.1335C39.9458 22.1335 39.7364 22.197 39.5582 22.316C39.3801 22.435 39.2413 22.6042 39.1593 22.8021C39.0773 23 39.0558 23.2177 39.0976 23.4278C39.1393 23.638 39.2425 23.831 39.3939 23.9824C39.5454 24.1339 39.7384 24.2371 39.9485 24.2789C40.1586 24.3207 40.3763 24.2993 40.5743 24.2174C40.7722 24.1354 40.9414 23.9966 41.0604 23.8185C41.1794 23.6404 41.243 23.431 41.243 23.2168C41.2431 23.0745 41.2151 22.9337 41.1607 22.8022C41.1063 22.6708 41.0265 22.5514 40.9259 22.4508C40.8253 22.3502 40.7059 22.2704 40.5745 22.216C40.4431 22.1615 40.3023 22.1335 40.16 22.1335Z" fill="#231F20"/>
<path fill-rule="evenodd" clip-rule="evenodd" d="M60.8972 22.3545C60.4505 22.3545 60.0139 22.4869 59.6426 22.735C59.2712 22.9832 58.9818 23.3358 58.8109 23.7485C58.6399 24.1611 58.5952 24.6151 58.6823 25.0532C58.7695 25.4912 58.9845 25.8936 59.3003 26.2094C59.6162 26.5252 60.0185 26.7403 60.4566 26.8274C60.8946 26.9146 61.3487 26.8698 61.7613 26.6989C62.1739 26.528 62.5266 26.2385 62.7747 25.8672C63.0228 25.4958 63.1553 25.0592 63.1553 24.6126C63.1552 24.0137 62.9173 23.4394 62.4938 23.016C62.0703 22.5925 61.496 22.3546 60.8972 22.3545Z" fill="#231F20"/>
<path fill-rule="evenodd" clip-rule="evenodd" d="M21.8021 45.4042C21.3555 45.4041 20.9189 45.5365 20.5475 45.7846C20.1761 46.0327 19.8866 46.3854 19.7157 46.798C19.5447 47.2107 19.5 47.6647 19.5871 48.1028C19.6742 48.5408 19.8893 48.9432 20.2051 49.259C20.5209 49.5749 20.9232 49.79 21.3613 49.8771C21.7993 49.9642 22.2534 49.9195 22.666 49.7486C23.0787 49.5777 23.4314 49.2883 23.6795 48.9169C23.9276 48.5455 24.0601 48.1089 24.0601 47.6623C24.06 47.0635 23.8221 46.4892 23.3987 46.0657C22.9752 45.6422 22.4009 45.4043 21.8021 45.4042Z" fill="#231F20"/>
<path fill-rule="evenodd" clip-rule="evenodd" d="M33.9145 68.5523C33.4679 68.5522 33.0312 68.6846 32.6598 68.9326C32.2884 69.1807 31.9989 69.5334 31.8279 69.946C31.657 70.3586 31.6122 70.8127 31.6993 71.2507C31.7864 71.6888 32.0014 72.0912 32.3172 72.4071C32.633 72.7229 33.0354 72.938 33.4734 73.0252C33.9115 73.1123 34.3655 73.0676 34.7782 72.8967C35.1908 72.7258 35.5435 72.4364 35.7917 72.065C36.0398 71.6936 36.1723 71.257 36.1723 70.8104C36.1722 70.2116 35.9343 69.6373 35.5109 69.2138C35.0876 68.7904 34.5133 68.5524 33.9145 68.5522" fill="#231F20"/>
<path fill-rule="evenodd" clip-rule="evenodd" d="M64.0079 39.582C63.6859 39.582 63.3712 39.4865 63.1036 39.3076C62.8359 39.1287 62.6273 38.8745 62.5041 38.5771C62.3809 38.2796 62.3487 37.9523 62.4116 37.6366C62.4744 37.3208 62.6294 37.0308 62.8571 36.8032C63.0848 36.5756 63.3748 36.4206 63.6906 36.3578C64.0063 36.295 64.3336 36.3273 64.631 36.4505C64.9284 36.5737 65.1826 36.7824 65.3615 37.0501C65.5403 37.3178 65.6357 37.6325 65.6357 37.9544C65.6357 38.1682 65.5936 38.3798 65.5118 38.5773C65.43 38.7748 65.3101 38.9543 65.1589 39.1054C65.0078 39.2565 64.8283 39.3764 64.6308 39.4582C64.4333 39.54 64.2216 39.582 64.0079 39.582Z" fill="#231F20"/>
<path fill-rule="evenodd" clip-rule="evenodd" d="M57.3763 44.5538C57.0544 44.5538 56.7397 44.4583 56.472 44.2794C56.2044 44.1006 55.9958 43.8464 55.8726 43.5489C55.7494 43.2515 55.7172 42.9243 55.78 42.6085C55.8428 42.2928 55.9978 42.0028 56.2254 41.7751C56.453 41.5475 56.7431 41.3925 57.0588 41.3296C57.3745 41.2668 57.7018 41.299 57.9992 41.4222C58.2966 41.5454 58.5509 41.754 58.7297 42.0216C58.9086 42.2893 59.0041 42.6039 59.0042 42.9259C59.0042 43.1397 58.9621 43.3513 58.8803 43.5489C58.7985 43.7464 58.6786 43.9259 58.5274 44.077C58.3763 44.2282 58.1968 44.3481 57.9993 44.4299C57.8018 44.5117 57.5901 44.5538 57.3763 44.5538Z" fill="#231F20"/>
<path fill-rule="evenodd" clip-rule="evenodd" d="M64.3439 44.7164C64.1297 44.7164 63.9203 44.6528 63.7423 44.5338C63.5642 44.4148 63.4254 44.2457 63.3434 44.0478C63.2615 43.8499 63.2401 43.6321 63.2819 43.422C63.3237 43.212 63.4268 43.019 63.5783 42.8676C63.7298 42.7161 63.9227 42.613 64.1328 42.5712C64.3429 42.5294 64.5606 42.5509 64.7585 42.6329C64.9564 42.7148 65.1255 42.8537 65.2445 43.0318C65.3635 43.2098 65.427 43.4192 65.427 43.6334C65.4271 43.7757 65.3991 43.9165 65.3446 44.0479C65.2902 44.1793 65.2104 44.2987 65.1098 44.3993C65.0092 44.4999 64.8898 44.5796 64.7584 44.6341C64.627 44.6885 64.4861 44.7165 64.3439 44.7164Z" fill="#231F20"/>
<path fill-rule="evenodd" clip-rule="evenodd" d="M73.6603 45.4042C73.2136 45.4041 72.777 45.5364 72.4056 45.7845C72.0342 46.0326 71.7447 46.3852 71.5737 46.7979C71.4027 47.2105 71.3579 47.6645 71.445 48.1026C71.5321 48.5407 71.7471 48.9431 72.0629 49.2589C72.3787 49.5748 72.7811 49.7899 73.2191 49.8771C73.6572 49.9642 74.1112 49.9195 74.5239 49.7486C74.9365 49.5777 75.2892 49.2883 75.5374 48.9169C75.7855 48.5456 75.918 48.1089 75.918 47.6623C75.9179 47.0635 75.6801 46.4892 75.2567 46.0657C74.8333 45.6423 74.2591 45.4043 73.6603 45.4042Z" fill="#231F20"/>
</svg>
