<svg width="96" height="96" viewBox="0 0 96 96" fill="none" xmlns="http://www.w3.org/2000/svg">
<path d="M47.4998 18L56.16 33L47.4998 48H30.1793L21.519 33L30.1793 18H47.4998Z" fill="#FFDA00"/>
<path d="M73.4805 33L82.1408 48L73.4805 63H56.16L47.4998 48L56.16 33H73.4805Z" fill="#FFB000"/>
<path d="M47.4998 48L56.16 63L47.4998 78H30.1793L21.519 63L30.1793 48H47.4998Z" fill="#FF7300"/>
<path opacity="0.4" d="M38.8395 33L47.4997 48L38.8395 63H21.519L12.8587 48L21.519 33H38.8395Z" fill="#FFC200"/>
<path opacity="0.4" d="M64.8202 18L73.4805 33L64.8202 48H47.4997L38.8395 33L47.4997 18H64.8202Z" fill="#FFEE4D"/>
<path opacity="0.4" d="M64.8202 48L73.4805 63L64.8202 78H47.4997L38.8395 63L47.4997 48H64.8202Z" fill="#FF9700"/>
<path fill-rule="evenodd" clip-rule="evenodd" d="M37.7134 29.5061H38.1315V28.9458H39.4053V29.5061H39.8234C41.4842 29.5061 42.2184 30.4131 42.2184 32.6247C42.2184 34.9182 41.4435 35.8966 39.8641 35.8966H39.4053V36.5183H38.1315V35.8966H37.6727C36.0933 35.8966 35.3184 34.9182 35.3184 32.6247C35.3184 30.4131 36.0726 29.5061 37.7134 29.5061ZM37.7747 34.7549H38.1315V30.6478H37.8154C36.949 30.6478 36.6129 31.0554 36.6129 32.6554C36.6129 34.3067 37.0103 34.7549 37.7747 34.7549ZM39.4053 34.7549H39.7722C40.5365 34.7549 40.924 34.3067 40.924 32.6554C40.924 31.0554 40.5878 30.6478 39.7315 30.6478H39.4053L39.4053 34.7549Z" fill="#231F20"/>
<path d="M31.2595 34.6835L29.1499 29.2006H30.5971L31.9323 33.0835L33.1755 29.2006H34.5615L32.0343 36.2328H30.6585L31.2595 34.6835Z" fill="#231F20"/>
<path fill-rule="evenodd" clip-rule="evenodd" d="M48.5297 36.2328L46.3182 29.2006H45.2584L43.0161 36.2328H44.402L44.6975 35.183H46.8377L47.1338 36.2328H48.5297ZM45.7779 31.3101L46.5729 34.1946H44.9729L45.7779 31.3101Z" fill="#231F20"/>
<path d="M46.4998 48.0122C46.4998 50.9986 47.2641 51.6403 49.0882 51.6403C50.7601 51.6403 51.5244 51.0901 51.5752 48.8478H50.2606C50.2093 50.193 49.8631 50.4177 49.0882 50.4177C48.1611 50.4177 47.8249 50.0916 47.8249 48.0121C47.8249 45.8413 48.1611 45.5865 49.0882 45.5865C49.8631 45.5865 50.1686 45.7599 50.25 47.0136H51.5651C51.4837 44.8327 50.6782 44.3639 49.0882 44.3639C47.3354 44.3639 46.4998 44.9141 46.4998 48.0122Z" fill="#231F20"/>
<path fill-rule="evenodd" clip-rule="evenodd" d="M57.9271 51.5182L55.7156 44.486H54.6558L52.4135 51.5182H53.7994L54.0949 50.4685H56.2351L56.5311 51.5182H57.9271ZM55.1753 46.5955L55.9703 49.4801H54.3703L55.1753 46.5955Z" fill="#231F20"/>
<path d="M60.3755 51.5182H59.1016V44.486H59.9674L61.9142 47.472L63.8403 44.486H64.7067V51.5182H63.4228V46.9931L61.8941 49.2147L60.3755 46.983V51.5182Z" fill="#231F20"/>
<path fill-rule="evenodd" clip-rule="evenodd" d="M71.3854 51.5182L69.1738 44.486L68.114 44.486L65.8718 51.5183H67.2577L67.5532 50.4685H69.6934L69.9894 51.5182H71.3854ZM68.6336 46.5955L69.4286 49.4801H67.8286L68.6336 46.5955Z" fill="#231F20"/>
<path fill-rule="evenodd" clip-rule="evenodd" d="M75.1076 49.582H73.8639V51.5182H72.5593V44.486H75.0976C76.5649 44.486 77.1966 45.1483 77.1966 47.0031C77.1966 48.8478 76.5443 49.582 75.1076 49.582ZM73.8639 48.4503H74.9136C75.5965 48.4503 75.882 48.1448 75.882 47.0137C75.882 45.882 75.6373 45.6172 74.9036 45.6172H73.8639V48.4503Z" fill="#231F20"/>
<path fill-rule="evenodd" clip-rule="evenodd" d="M83.141 51.5182L80.9294 44.486H79.8696L77.6273 51.5182H79.0133L79.3088 50.4685H81.449L81.745 51.5182H83.141ZM80.3892 46.5955L81.1842 49.4801H79.5841L80.3892 46.5955Z" fill="#231F20"/>
<path d="M35.6583 66.6361C33.9462 66.6361 33.1205 66.0045 33.1205 63.8436H34.4251C34.4557 65.2301 34.8939 65.4542 35.6276 65.4542C36.4025 65.4542 36.7286 65.1587 36.7286 64.4245C36.7286 63.7315 36.5145 63.4768 35.7909 63.4768H35.1181V62.427H35.7703C36.3819 62.427 36.5653 62.1109 36.5653 61.4692C36.5653 60.7762 36.2799 60.5416 35.6176 60.5416C35.0166 60.5416 34.5171 60.7049 34.5678 62.0401H33.2532C33.2025 59.9099 34.1296 59.3596 35.6482 59.3596C37.1874 59.3596 37.8804 59.9812 37.8804 61.3772C37.9024 61.6986 37.8145 62.0178 37.6312 62.2826C37.4478 62.5475 37.1799 62.7421 36.8713 62.8345V62.9471C37.2315 63.0121 37.5537 63.2112 37.773 63.5043C37.9923 63.7973 38.0925 64.1626 38.0533 64.5265C38.0533 65.9638 37.2889 66.6361 35.6583 66.6361Z" fill="#231F20"/>
<path d="M22.3846 63.4567H22.8529L24.3309 66.514H25.8188L23.9027 62.7738L25.6967 59.4818H24.2394L22.3846 63.12V59.4818H21.0801V66.514H22.3846V63.4567Z" fill="#231F20"/>
<path fill-rule="evenodd" clip-rule="evenodd" d="M32.242 66.514L30.0304 59.4818H28.9706L26.7283 66.514H28.1142L28.4097 65.4642H30.55L30.846 66.514H32.242ZM29.4901 61.5913L30.2851 64.4758H28.6851L29.4901 61.5913Z" fill="#231F20"/>
<path fill-rule="evenodd" clip-rule="evenodd" d="M44.4765 66.514L42.2649 59.4818L41.2051 59.4818L38.9629 66.514H40.3488L40.6443 65.4643H42.7845L43.0805 66.514H44.4765ZM41.7247 61.5913L42.5197 64.4758H40.9197L41.7247 61.5913Z" fill="#231F20"/>
<path d="M49.1264 62.4069V59.4818H50.431V66.514H49.1264V63.5687H46.9561V66.514H45.6516V59.4818H46.9561V62.4069L49.1264 62.4069Z" fill="#231F20"/>
<path fill-rule="evenodd" clip-rule="evenodd" d="M52.0231 66.514H54.5407C55.9367 66.514 56.5996 65.8824 56.5995 64.3024C56.5995 62.8758 56.0287 62.1521 54.5714 62.1521H53.3276V59.4818H52.0231V66.514ZM54.3673 65.3829H53.3276V63.2934H54.3573C55.0503 63.2934 55.2844 63.4974 55.2844 64.3125C55.2844 65.1281 54.9789 65.3829 54.3673 65.3829Z" fill="#231F20"/>
</svg>
