<svg width="96" height="96" viewBox="0 0 96 96" fill="none" xmlns="http://www.w3.org/2000/svg">
<path d="M35.526 29.7158L42.0622 41.037L35.526 52.3583H22.4535L15.9172 41.037H28.9897L35.526 29.7158Z" fill="#FFDA00"/>
<path d="M55.1347 41.037L61.671 52.3582L55.1347 63.6795H42.0622L35.526 52.3582L42.0622 41.037H55.1347Z" fill="#FFB000"/>
<path d="M35.526 52.3583L42.0622 63.6795L35.526 75H22.4535L15.9172 63.6795L22.4535 52.3583H35.526Z" fill="#FF7300"/>
<path opacity="0.4" d="M28.9898 41.037L35.526 52.3582L28.9898 63.6795H15.9173L9.38104 52.3582L15.9173 41.037H28.9898Z" fill="#FFC200"/>
<path opacity="0.4" d="M48.5986 29.7158L55.1348 41.037L48.5986 52.3583H35.5261L28.9898 41.037L35.5261 29.7158H48.5986Z" fill="#FFEE4D"/>
<path opacity="0.4" d="M48.5986 52.3583L55.1348 63.6795L48.5986 75H35.5261L28.9898 63.6795L35.5261 52.3583H48.5986Z" fill="#FF9700"/>
<path d="M33.8918 26.8853L27.3555 38.2065H14.283L20.8193 26.8853H33.8918Z" fill="#FFDA00"/>
<path fill-rule="evenodd" clip-rule="evenodd" d="M55.8706 25.2322L74.4594 57.4275L77.0176 55.884L57.6406 22.395L55.8706 25.2322Z" fill="#FFDA00"/>
<path fill-rule="evenodd" clip-rule="evenodd" d="M83.7879 52.53L63.8694 18.1605H60.4216L80.1759 52.302L83.7879 52.53Z" fill="#FFDA00"/>
<path d="M32.0379 32.5113C32.0278 32.7582 31.9226 32.9916 31.7443 33.1627C31.566 33.3338 31.3285 33.4293 31.0814 33.4293C30.8343 33.4293 30.5968 33.3338 30.4185 33.1627C30.2402 32.9916 30.135 32.7582 30.1249 32.5113V31.1181H18.3715V32.9049C18.3613 33.1518 18.2561 33.3851 18.0778 33.5562C17.8996 33.7273 17.662 33.8228 17.415 33.8228C17.1679 33.8228 16.9304 33.7273 16.7521 33.5562C16.5738 33.3851 16.4686 33.1518 16.4585 32.9049V30.1999C16.4637 29.9514 16.5674 29.7151 16.7467 29.5429C16.9261 29.3708 17.1664 29.2769 17.415 29.2819H31.0814C31.3299 29.2769 31.5703 29.3708 31.7496 29.5429C31.929 29.7151 32.0327 29.9514 32.0379 30.1999V32.5113Z" fill="#231F20"/>
<path d="M25.2775 30.1998C25.2778 30.3203 25.2544 30.4396 25.2085 30.551C25.1627 30.6623 25.0953 30.7635 25.0103 30.8488C24.9252 30.9341 24.8242 31.0018 24.713 31.0479C24.6018 31.0941 24.4825 31.1179 24.3621 31.1179C24.2416 31.1179 24.1224 31.0941 24.0111 31.0479C23.8999 31.0018 23.7989 30.9341 23.7138 30.8488C23.6288 30.7635 23.5614 30.6623 23.5156 30.551C23.4697 30.4396 23.4463 30.3203 23.4467 30.1998V20.2652C23.4466 20.0224 23.5431 19.7895 23.7147 19.6178C23.8864 19.4461 24.1193 19.3495 24.3621 19.3495H59.4617C59.7045 19.3495 59.9374 19.446 60.1091 19.6177C60.2808 19.7894 60.3773 20.0223 60.3773 20.2651C60.3773 20.5079 60.2808 20.7408 60.1091 20.9125C59.9374 21.0843 59.7045 21.1807 59.4617 21.1807H25.2775V30.1998Z" fill="#231F20"/>
<path fill-rule="evenodd" clip-rule="evenodd" d="M24.362 16.8369C25.035 16.8369 25.6929 17.0364 26.2525 17.4103C26.8121 17.7842 27.2482 18.3156 27.5058 18.9374C27.7634 19.5591 27.8308 20.2433 27.6995 20.9034C27.5683 21.5634 27.2442 22.1698 26.7683 22.6457C26.2925 23.1216 25.6862 23.4457 25.0261 23.577C24.3661 23.7083 23.6819 23.641 23.0601 23.3835C22.4383 23.1259 21.9069 22.6898 21.5329 22.1303C21.159 21.5707 20.9594 20.9128 20.9594 20.2398C20.9594 19.3374 21.3179 18.4719 21.956 17.8337C22.5941 17.1956 23.4595 16.837 24.362 16.8369Z" fill="#231F20"/>
<path fill-rule="evenodd" clip-rule="evenodd" d="M24.362 18.6494C24.6766 18.6494 24.9841 18.7427 25.2456 18.9175C25.5072 19.0922 25.711 19.3406 25.8314 19.6312C25.9518 19.9219 25.9833 20.2417 25.9219 20.5502C25.8605 20.8587 25.709 21.1421 25.4866 21.3645C25.2642 21.5869 24.9808 21.7384 24.6723 21.7998C24.3637 21.8611 24.0439 21.8296 23.7533 21.7092C23.4627 21.5889 23.2143 21.385 23.0396 21.1234C22.8648 20.8619 22.7715 20.5544 22.7715 20.2398C22.7716 19.818 22.9391 19.4135 23.2374 19.1153C23.5357 18.817 23.9402 18.6494 24.362 18.6494" fill="white"/>
<path fill-rule="evenodd" clip-rule="evenodd" d="M62.5794 72.7295L61.6079 71.3375L72.8914 51.1786C73.3616 50.3386 73.9926 49.5995 74.7484 49.0034C75.5042 48.4073 76.37 47.9659 77.2964 47.7044C78.2228 47.4429 79.1916 47.3664 80.1475 47.4793C81.1035 47.5922 82.0278 47.8923 82.8678 48.3625C83.7078 48.8326 84.4469 49.4636 85.043 50.2194C85.6391 50.9752 86.0805 51.841 86.342 52.7674C86.6035 53.6938 86.68 54.6627 86.5671 55.6186C86.4542 56.5745 86.1541 57.4989 85.6839 58.3389L77.6289 72.7295H62.5794Z" fill="#FF7300"/>
<path d="M78.4081 71.3375H61.6079V75.0003H78.4081V71.3375Z" fill="#231F20"/>
<path fill-rule="evenodd" clip-rule="evenodd" d="M79.1539 59.0755C79.9508 59.0756 80.7299 58.8394 81.3925 58.3968C82.0552 57.9541 82.5717 57.3249 82.8768 56.5886C83.1818 55.8524 83.2617 55.0422 83.1062 54.2606C82.9508 53.479 82.567 52.761 82.0035 52.1975C81.44 51.634 80.7221 51.2503 79.9404 51.0948C79.1588 50.9394 78.3487 51.0193 77.6124 51.3243C76.8762 51.6293 76.247 52.1459 75.8043 52.8085C75.3616 53.4712 75.1255 54.2503 75.1256 55.0472C75.1268 56.1152 75.5516 57.1391 76.3068 57.8943C77.062 58.6494 78.0859 59.0742 79.1539 59.0755Z" fill="#231F20"/>
<path fill-rule="evenodd" clip-rule="evenodd" d="M52.7711 16.2286H43.9852C42.9156 16.2318 41.8908 16.658 41.1345 17.4143C40.3783 18.1706 39.952 19.1954 39.9489 20.2649V20.2652C39.952 21.3348 40.3782 22.3596 41.1345 23.1159C41.8908 23.8722 42.9156 24.2985 43.9852 24.3016H52.7711C53.8407 24.2985 54.8655 23.8722 55.6218 23.1159C56.3781 22.3596 56.8044 21.3348 56.8075 20.2652V20.2649C56.8044 19.1954 56.3781 18.1705 55.6218 17.4143C54.8655 16.658 53.8407 16.2317 52.7711 16.2286Z" fill="#231F20"/>
<path fill-rule="evenodd" clip-rule="evenodd" d="M59.8759 15.0003H48.4162C47.0212 15.0044 45.6845 15.5603 44.6981 16.5468C43.7116 17.5332 43.1557 18.8699 43.1516 20.2649V20.2655C43.1557 21.6605 43.7116 22.9973 44.6981 23.9837C45.6845 24.9701 47.0212 25.5261 48.4162 25.5301H59.8759C61.2709 25.5261 62.6076 24.9701 63.594 23.9837C64.5804 22.9972 65.1364 21.6605 65.1405 20.2655V20.2649C65.1364 18.8699 64.5804 17.5332 63.594 16.5468C62.6076 15.5604 61.2709 15.0044 59.8759 15.0003Z" fill="#FF7300"/>
<path fill-rule="evenodd" clip-rule="evenodd" d="M59.4618 23.1306C60.0303 23.1307 60.586 22.9622 61.0587 22.6464C61.5314 22.3306 61.8998 21.8817 62.1174 21.3565C62.335 20.8314 62.392 20.2534 62.2811 19.6959C62.1702 19.1383 61.8965 18.6262 61.4945 18.2242C61.0925 17.8222 60.5804 17.5484 60.0228 17.4375C59.4653 17.3266 58.8874 17.3836 58.3622 17.6011C57.837 17.8187 57.3881 18.1871 57.0723 18.6598C56.7565 19.1325 56.588 19.6882 56.588 20.2567C56.5888 21.0186 56.8919 21.7491 57.4306 22.2879C57.9694 22.8267 58.6999 23.1297 59.4618 23.1306Z" fill="#231F20"/>
<path d="M22.7716 32.5462L18.1718 36.1485L16.2263 34.8367L18.3713 31.1182L22.7716 32.5462Z" fill="#FFDA00"/>
</svg>
