<svg width="24" height="24" viewBox="0 0 24 24" fill="none" xmlns="http://www.w3.org/2000/svg">
<path d="M22 12.0001C21.9998 10.0891 21.4519 8.21815 20.4214 6.60882C19.3909 4.99948 17.9209 3.71912 16.1853 2.91932C14.4497 2.11951 12.5213 1.83375 10.6284 2.09586C8.73545 2.35798 6.95725 3.15699 5.50432 4.39832C4.05138 5.63964 2.98455 7.27128 2.43012 9.10008C1.87569 10.9289 1.85688 12.8783 2.37592 14.7174C2.89495 16.5566 3.9301 18.2085 5.35882 19.4776C6.78753 20.7468 8.54998 21.5799 10.4375 21.8785V14.8907H7.89844V12.0001H10.4375V9.79693C10.383 9.28242 10.4422 8.7622 10.6111 8.27314C10.78 7.78408 11.0544 7.33814 11.4148 6.96691C11.7752 6.59568 12.2128 6.30824 12.6966 6.12496C13.1805 5.94167 13.6987 5.86702 14.2146 5.9063C14.9646 5.91673 15.7127 5.98201 16.4531 6.10161V8.56255H15.1921C14.9773 8.53404 14.7587 8.55422 14.5527 8.6216C14.3467 8.68897 14.1585 8.80182 14.002 8.95178C13.8456 9.10174 13.7248 9.28498 13.6487 9.48793C13.5726 9.69088 13.5432 9.90835 13.5625 10.1242V12.0001H16.3359L15.8926 14.8907H13.5625V21.8785C15.9146 21.5059 18.0566 20.3064 19.6033 18.4956C21.15 16.6847 21.9998 14.3815 22 12.0001Z" fill="#231F20" fill-opacity="0.5"/>
</svg>
