<svg width="24" height="24" viewBox="0 0 24 24" fill="none" xmlns="http://www.w3.org/2000/svg">
<path d="M12 3.8018C14.6701 3.8018 14.9864 3.81199 16.0408 3.86009C16.675 3.86762 17.3031 3.98409 17.8977 4.20442C18.329 4.37079 18.7207 4.62561 19.0475 4.95247C19.3744 5.27934 19.6292 5.67101 19.7956 6.10229C20.0159 6.69694 20.1324 7.32503 20.1399 7.95914C20.188 9.01361 20.1982 9.32988 20.1982 12C20.1982 14.6701 20.188 14.9864 20.1399 16.0408C20.1324 16.675 20.0159 17.3031 19.7956 17.8977C19.6292 18.329 19.3744 18.7207 19.0475 19.0475C18.7207 19.3744 18.329 19.6292 17.8977 19.7956C17.3031 20.0159 16.675 20.1324 16.0408 20.1399C14.9865 20.188 14.6703 20.1982 12 20.1982C9.3297 20.1982 9.01346 20.188 7.95915 20.1399C7.32504 20.1324 6.69694 20.0159 6.10229 19.7956C5.67101 19.6292 5.27934 19.3744 4.95247 19.0475C4.62561 18.7207 4.37079 18.329 4.20442 17.8977C3.98409 17.3031 3.86762 16.675 3.86009 16.0409C3.812 14.9864 3.8018 14.6701 3.8018 12C3.8018 9.32988 3.81199 9.01361 3.86009 7.95915C3.86762 7.32504 3.98409 6.69694 4.20442 6.10229C4.37079 5.67101 4.6256 5.27934 4.95247 4.95247C5.27934 4.6256 5.67101 4.37079 6.10229 4.20442C6.69694 3.98409 7.32503 3.86762 7.95914 3.86009C9.01361 3.812 9.32988 3.8018 12 3.8018ZM12 2C9.28416 2 8.94362 2.0115 7.877 2.06017C7.04741 2.07679 6.22665 2.23396 5.44961 2.525C4.78532 2.78192 4.18204 3.17478 3.67841 3.67841C3.17478 4.18204 2.78192 4.78532 2.525 5.44961C2.23396 6.22665 2.07679 7.04741 2.06017 7.877C2.0115 8.94362 2 9.28415 2 12C2 14.7158 2.0115 15.0564 2.06017 16.123C2.07679 16.9526 2.23396 17.7734 2.525 18.5504C2.78192 19.2147 3.17478 19.818 3.67841 20.3216C4.18204 20.8252 4.78532 21.2181 5.44961 21.475C6.22666 21.766 7.04743 21.9232 7.87702 21.9398C8.94362 21.9885 9.28416 22 12 22C14.7158 22 15.0564 21.9885 16.123 21.9398C16.9526 21.9232 17.7734 21.766 18.5504 21.475C19.2147 21.2181 19.818 20.8252 20.3216 20.3216C20.8252 19.818 21.2181 19.2147 21.475 18.5504C21.766 17.7733 21.9232 16.9526 21.9398 16.123C21.9885 15.0564 22 14.7158 22 12C22 9.28416 21.9885 8.94362 21.9398 7.877C21.9232 7.04741 21.766 6.22665 21.475 5.44961C21.2181 4.78532 20.8252 4.18204 20.3216 3.67841C19.818 3.17478 19.2147 2.78192 18.5504 2.525C17.7734 2.23396 16.9526 2.07679 16.123 2.06017C15.0564 2.0115 14.7158 2 12 2ZM12 6.86486C10.9844 6.86486 9.99154 7.16603 9.14707 7.73029C8.3026 8.29454 7.64442 9.09654 7.25575 10.0349C6.86708 10.9732 6.76539 12.0057 6.96353 13.0018C7.16167 13.9979 7.65075 14.9129 8.36891 15.6311C9.08707 16.3493 10.0021 16.8383 10.9982 17.0365C11.9943 17.2346 13.0268 17.1329 13.9651 16.7443C14.9035 16.3556 15.7055 15.6974 16.2697 14.8529C16.834 14.0085 17.1351 13.0156 17.1351 12C17.1351 10.6381 16.5941 9.33193 15.6311 8.36891C14.6681 7.40588 13.3619 6.86486 12 6.86486ZM12 15.3333C11.3407 15.3333 10.6963 15.1378 10.1481 14.7716C9.59994 14.4053 9.1727 13.8847 8.9204 13.2756C8.66811 12.6665 8.6021 11.9963 8.73072 11.3497C8.85934 10.7031 9.17681 10.1092 9.64298 9.64298C10.1092 9.17681 10.7031 8.85934 11.3497 8.73072C11.9963 8.6021 12.6665 8.66811 13.2756 8.9204C13.8847 9.1727 14.4053 9.59994 14.7716 10.1481C15.1378 10.6963 15.3333 11.3407 15.3333 12C15.3333 12.8841 14.9821 13.7319 14.357 14.357C13.7319 14.9821 12.8841 15.3333 12 15.3333ZM17.338 5.462C17.1007 5.462 16.8687 5.53238 16.6713 5.66424C16.474 5.79609 16.3202 5.98351 16.2293 6.20278C16.1385 6.42205 16.1148 6.66333 16.1611 6.89611C16.2074 7.12889 16.3216 7.34271 16.4895 7.51053C16.6573 7.67835 16.8711 7.79264 17.1039 7.83894C17.3367 7.88524 17.5779 7.86148 17.7972 7.77066C18.0165 7.67983 18.2039 7.52602 18.3358 7.32868C18.4676 7.13135 18.538 6.89934 18.538 6.662C18.538 6.34374 18.4116 6.03852 18.1865 5.81347C17.9615 5.58843 17.6563 5.462 17.338 5.462Z" fill="#231F20" fill-opacity="0.5"/>
</svg>
