<svg width="218" height="78" viewBox="0 0 218 78" fill="none" xmlns="http://www.w3.org/2000/svg">
<path d="M51.8298 58.6H22.4741C23.0502 57.2505 24.0205 56.0381 25.3761 55.0341C27.3426 53.642 30.2383 51.9027 34.1634 49.8148L38.716 47.3699L38.729 47.3625C42.6594 45.0982 45.9433 42.5335 48.2423 39.3062C50.5548 36.0598 51.8298 32.2 51.8298 27.428C51.8298 21.6471 49.8317 16.6036 46.0248 13.0089C42.2218 9.41772 36.7073 7.35997 29.8298 7.35997C16.6627 7.35997 7.40977 16.4769 7.40977 27.68C7.40977 32.6964 8.99998 37.2855 12.2506 41.3267L12.8237 42.0392L22.1028 35.8531L21.3357 34.994C19.3721 32.7947 18.2298 30.0002 18.2298 27.512C18.2298 22.0675 22.7694 17.34 29.4098 17.34C33.0617 17.34 35.9525 18.4879 37.922 20.3438C39.8881 22.1964 41.0098 24.8227 41.0098 27.932C41.0098 32.4812 38.891 35.3071 35.7383 37.4351L35.7331 37.4387C34.2 38.4876 31.9045 39.7206 28.8786 41.2335L28.8382 41.2537C26.8602 42.2427 25.3282 43.0087 24.2924 43.6124C19.5857 46.2661 15.7787 49.3712 12.9085 53.1112L12.904 53.117L12.8995 53.123C10.0487 56.9537 8.66977 61.8866 8.66977 68V69H51.8298V58.6Z" fill="white"/>
<path fill-rule="evenodd" clip-rule="evenodd" d="M56.8746 38.6C56.8746 47.954 59.223 55.7535 63.5468 61.2376C67.8902 66.7466 74.1686 69.84 81.8146 69.84C89.4606 69.84 95.739 66.7466 100.082 61.2376C104.406 55.7535 106.755 47.954 106.755 38.6C106.755 29.246 104.406 21.4465 100.082 15.9623C95.739 10.4534 89.4606 7.35997 81.8146 7.35997C74.1686 7.35997 67.8902 10.4534 63.5468 15.9623C59.223 21.4465 56.8746 29.246 56.8746 38.6ZM95.9346 38.6C95.9346 45.0218 94.6168 50.1968 92.1415 54.1093C89.7154 57.9442 86.3338 59.86 81.8146 59.86C77.2751 59.86 73.8189 58.011 71.4037 54.1933C68.9336 50.289 67.6946 45.119 67.6946 38.6C67.6946 32.0838 68.9325 26.9966 71.4037 23.0906C73.8259 19.262 77.2883 17.34 81.8146 17.34C86.3338 17.34 89.7154 19.2558 92.1415 23.0906C94.6168 27.0031 95.9346 32.1782 95.9346 38.6Z" fill="white"/>
<path d="M155.599 58.6H126.244C126.82 57.2505 127.79 56.0381 129.146 55.0341C131.112 53.642 134.008 51.9027 137.933 49.8148L142.486 47.3699L142.498 47.3625C146.429 45.0982 149.713 42.5335 152.012 39.3062C154.324 36.0598 155.599 32.2 155.599 27.428C155.599 21.6471 153.601 16.6036 149.794 13.0089C145.991 9.41772 140.477 7.35997 133.599 7.35997C120.432 7.35997 111.179 16.4769 111.179 27.68C111.179 32.6964 112.77 37.2855 116.02 41.3267L116.593 42.0392L125.872 35.8531L125.105 34.994C123.142 32.7947 121.999 30.0002 121.999 27.512C121.999 22.0675 126.539 17.34 133.179 17.34C136.831 17.34 139.722 18.4879 141.692 20.3438C143.658 22.1964 144.779 24.8227 144.779 27.932C144.779 32.4812 142.66 35.3071 139.508 37.4351L139.503 37.4387C137.97 38.4876 135.674 39.7206 132.648 41.2335L132.608 41.2537C130.63 42.2427 129.098 43.0087 128.062 43.6124C123.355 46.2661 119.548 49.3712 116.678 53.1112L116.673 53.117L116.669 53.123C113.818 56.9537 112.439 61.8866 112.439 68V69H155.599V58.6Z" fill="white"/>
<path fill-rule="evenodd" clip-rule="evenodd" d="M160.644 38.6C160.644 47.954 162.993 55.7535 167.316 61.2376C171.66 66.7466 177.938 69.84 185.584 69.84C193.23 69.84 199.509 66.7466 203.852 61.2376C208.176 55.7535 210.524 47.954 210.524 38.6C210.524 29.246 208.176 21.4465 203.852 15.9623C199.509 10.4534 193.23 7.35997 185.584 7.35997C177.938 7.35997 171.66 10.4534 167.316 15.9623C162.993 21.4465 160.644 29.246 160.644 38.6ZM199.704 38.6C199.704 45.0218 198.386 50.1968 195.911 54.1093C193.485 57.9442 190.103 59.86 185.584 59.86C181.045 59.86 177.588 58.011 175.173 54.1933C172.703 50.289 171.464 45.119 171.464 38.6C171.464 32.0838 172.702 26.9966 175.173 23.0906C177.595 19.262 181.058 17.34 185.584 17.34C190.103 17.34 193.485 19.2558 195.911 23.0906C198.386 27.0031 199.704 32.1782 199.704 38.6Z" fill="white"/>
<path fill-rule="evenodd" clip-rule="evenodd" d="M13.7018 53.72C16.4738 50.108 20.1698 47.084 24.7898 44.48C25.7977 43.892 27.3095 43.1361 29.3253 42.1282C32.3493 40.6162 34.7018 39.356 36.2978 38.264C39.6578 35.996 42.0098 32.888 42.0098 27.932C42.0098 21.212 37.1378 16.34 29.4098 16.34C22.2698 16.34 17.2298 21.464 17.2298 27.512C17.2298 29.6929 18.0097 32.0298 19.3651 34.0727C19.7324 34.6264 20.142 35.1585 20.5898 35.66L13.0298 40.7C9.92177 36.836 8.40977 32.468 8.40977 27.68C8.40977 17.096 17.1458 8.35997 29.8298 8.35997C43.1858 8.35997 50.8298 16.34 50.8298 27.428C50.8298 36.584 45.9578 42.044 38.2298 46.496L33.6938 48.932C29.7458 51.032 26.8058 52.796 24.7898 54.224C23.4985 55.1784 22.5074 56.3205 21.8416 57.6C21.5112 58.2348 21.2609 58.9035 21.0938 59.6H50.8298V68H9.66977C9.66977 67.3169 9.68741 66.6503 9.72267 66C9.99529 60.9727 11.3217 56.9183 13.7018 53.72ZM24.1913 57.6H52.8298V70H7.66977V68C7.66977 61.7373 9.08372 56.5755 12.0973 52.526L12.1061 52.5141L12.1152 52.5023C15.0835 48.6345 19.0016 45.4483 23.7951 42.7448C24.8587 42.1254 26.4112 41.3492 28.3547 40.3774L28.4313 40.3391C31.4592 38.8252 33.6983 37.6192 35.1684 36.6134L35.1788 36.6062C38.1241 34.6182 40.0098 32.0743 40.0098 27.932C40.0098 25.0734 38.9844 22.7189 37.2362 21.0716C35.4812 19.4178 32.8495 18.34 29.4098 18.34C23.269 18.34 19.2298 22.671 19.2298 27.512C19.2298 29.7165 20.2544 32.2814 22.0817 34.3279L23.6159 36.0463L12.6175 43.3785L11.4713 41.9535C8.07819 37.735 6.40977 32.9249 6.40977 27.68C6.40977 15.8579 16.1796 6.35997 29.8298 6.35997C36.9067 6.35997 42.6857 8.48046 46.7114 12.2818C50.7445 16.0902 52.8298 21.4103 52.8298 27.428C52.8298 32.3941 51.4977 36.4596 49.0567 39.8863C46.6428 43.2751 43.225 45.9264 39.2281 48.229L39.2023 48.2439L34.633 50.6977C30.7312 52.7732 27.88 54.4878 25.9628 55.844C25.2459 56.3761 24.6568 56.9659 24.1913 57.6ZM62.7616 61.8567C58.2614 56.1489 55.8746 48.1099 55.8746 38.6C55.8746 29.09 58.2614 21.051 62.7616 15.3432C67.3009 9.58574 73.8727 6.35997 81.8146 6.35997C89.7566 6.35997 96.3284 9.58574 100.868 15.3432C105.368 21.051 107.755 29.09 107.755 38.6C107.755 48.1099 105.368 56.1489 100.868 61.8567C96.3284 67.6142 89.7566 70.84 81.8146 70.84C73.8727 70.84 67.3009 67.6142 62.7616 61.8567ZM91.2965 53.5747C93.643 49.8656 94.9346 44.8916 94.9346 38.6C94.9346 32.3084 93.643 27.3343 91.2965 23.6253C89.0482 20.0716 85.9809 18.34 81.8146 18.34C77.6339 18.34 74.4892 20.084 72.2488 23.6253C69.9104 27.3213 68.6946 32.2036 68.6946 38.6C68.6946 45.002 69.9127 49.9661 72.2488 53.6587C74.4753 57.178 77.6076 58.86 81.8146 58.86C85.9809 58.86 89.0482 57.1284 91.2965 53.5747ZM117.471 53.72C120.243 50.108 123.939 47.084 128.559 44.48C129.567 43.892 131.079 43.1361 133.095 42.1282C136.119 40.6162 138.471 39.356 140.067 38.264C143.427 35.996 145.779 32.888 145.779 27.932C145.779 21.212 140.907 16.34 133.179 16.34C126.039 16.34 120.999 21.464 120.999 27.512C120.999 29.6929 121.779 32.0298 123.135 34.0727C123.502 34.6264 123.912 35.1585 124.359 35.66L116.799 40.7C113.691 36.836 112.179 32.468 112.179 27.68C112.179 17.096 120.915 8.35997 133.599 8.35997C146.955 8.35997 154.599 16.34 154.599 27.428C154.599 36.584 149.727 42.044 141.999 46.496L137.463 48.932C133.515 51.032 130.575 52.796 128.559 54.224C127.268 55.1784 126.277 56.3205 125.611 57.6C125.281 58.2348 125.03 58.9035 124.863 59.6H154.599V68H113.439C113.439 67.3169 113.457 66.6503 113.492 66C113.765 60.9727 115.091 56.9183 117.471 53.72ZM127.961 57.6H156.599V70H111.439V68C111.439 61.7373 112.853 56.5755 115.867 52.526L115.876 52.5141L115.885 52.5023C118.853 48.6345 122.771 45.4483 127.565 42.7448C128.628 42.1255 130.181 41.3493 132.124 40.3776L132.201 40.3391C135.229 38.8252 137.468 37.6192 138.938 36.6134L138.948 36.6062C141.894 34.6182 143.779 32.0743 143.779 27.932C143.779 25.0734 142.754 22.7189 141.006 21.0716C139.251 19.4178 136.619 18.34 133.179 18.34C127.039 18.34 122.999 22.671 122.999 27.512C122.999 29.7165 124.024 32.2814 125.851 34.3279L127.385 36.0463L116.387 43.3785L115.241 41.9535C111.848 37.735 110.179 32.9249 110.179 27.68C110.179 15.8579 119.949 6.35997 133.599 6.35997C140.676 6.35997 146.455 8.48046 150.481 12.2818C154.514 16.0902 156.599 21.4103 156.599 27.428C156.599 32.3941 155.267 36.4596 152.826 39.8863C150.412 43.2751 146.995 45.9264 142.998 48.229L142.972 48.2439L138.403 50.6977C134.501 52.7732 131.649 54.4878 129.732 55.844C129.015 56.3761 128.426 56.9659 127.961 57.6ZM166.531 61.8567C162.031 56.1489 159.644 48.1099 159.644 38.6C159.644 29.09 162.031 21.051 166.531 15.3432C171.07 9.58574 177.642 6.35997 185.584 6.35997C193.526 6.35997 200.098 9.58574 204.637 15.3432C209.137 21.051 211.524 29.09 211.524 38.6C211.524 48.1099 209.137 56.1489 204.637 61.8567C200.098 67.6142 193.526 70.84 185.584 70.84C177.642 70.84 171.07 67.6142 166.531 61.8567ZM195.066 53.5747C197.413 49.8656 198.704 44.8916 198.704 38.6C198.704 32.3084 197.413 27.3343 195.066 23.6253C192.818 20.0716 189.75 18.34 185.584 18.34C181.403 18.34 178.259 20.084 176.018 23.6253C173.68 27.3213 172.464 32.2036 172.464 38.6C172.464 45.002 173.682 49.9661 176.018 53.6587C178.245 57.178 181.377 58.86 185.584 58.86C189.75 58.86 192.818 57.1284 195.066 53.5747ZM81.8146 68.84C67.1146 68.84 57.8746 56.996 57.8746 38.6C57.8746 20.204 67.1146 8.35997 81.8146 8.35997C96.5146 8.35997 105.755 20.204 105.755 38.6C105.755 56.996 96.5146 68.84 81.8146 68.84ZM92.9866 54.644C95.5906 50.528 96.9346 45.152 96.9346 38.6C96.9346 32.048 95.5906 26.672 92.9866 22.556C90.3826 18.44 86.6866 16.34 81.8146 16.34C76.9426 16.34 73.1626 18.44 70.5586 22.556C67.9546 26.672 66.6946 31.964 66.6946 38.6C66.6946 45.236 67.9546 50.612 70.5586 54.728C73.1626 58.844 76.9426 60.86 81.8146 60.86C86.6866 60.86 90.3826 58.76 92.9866 54.644ZM185.584 68.84C170.884 68.84 161.644 56.996 161.644 38.6C161.644 20.204 170.884 8.35997 185.584 8.35997C200.284 8.35997 209.524 20.204 209.524 38.6C209.524 56.996 200.284 68.84 185.584 68.84ZM196.756 54.644C199.36 50.528 200.704 45.152 200.704 38.6C200.704 32.048 199.36 26.672 196.756 22.556C194.152 18.44 190.456 16.34 185.584 16.34C180.712 16.34 176.932 18.44 174.328 22.556C171.724 26.672 170.464 31.964 170.464 38.6C170.464 45.236 171.724 50.612 174.328 54.728C176.932 58.844 180.712 60.86 185.584 60.86C190.456 60.86 194.152 58.76 196.756 54.644Z" fill="url(#paint0_linear)"/>
<defs>
<linearGradient id="paint0_linear" x1="4.9873" y1="43" x2="212.987" y2="43" gradientUnits="userSpaceOnUse">
<stop offset="0.5" stop-color="#FFD200"/>
<stop offset="1" stop-color="#FF9900"/>
</linearGradient>
</defs>
</svg>
