<svg width="24" height="24" viewBox="0 0 24 24" fill="none" xmlns="http://www.w3.org/2000/svg">
<path d="M22.4823 6.3615C22.6454 5.84891 22.4823 5.47612 21.76 5.47612H19.3601C19.1365 5.46383 18.9146 5.52256 18.7263 5.64391C18.538 5.76526 18.3929 5.94303 18.3116 6.15181C17.5613 7.92149 16.5651 9.57652 15.3526 11.068C14.7934 11.6272 14.5371 11.8136 14.2342 11.8136C14.0711 11.8136 13.8614 11.6272 13.8614 11.1146V6.3382C13.8614 5.73241 13.675 5.45282 13.1624 5.45282H9.38788C9.31124 5.44912 9.23462 5.46072 9.1625 5.48693C9.09039 5.51314 9.02421 5.55344 8.96782 5.60549C8.91144 5.65754 8.86597 5.72028 8.83408 5.79008C8.8022 5.85987 8.78452 5.93532 8.78208 6.01201C8.78208 6.5945 9.64417 6.7343 9.73737 8.36527V11.9068C9.73737 12.6757 9.59757 12.8155 9.29468 12.8155C8.47919 12.8155 6.49868 9.80985 5.31044 6.3848C5.07744 5.70911 4.84444 5.4528 4.23865 5.4528H1.81549C1.1165 5.45281 1 5.77902 1 6.1285C1 6.7576 1.81549 9.92635 4.79785 14.1203C5.58228 15.3856 6.6575 16.4453 7.93407 17.2112C9.21065 17.9772 10.6517 18.4272 12.1372 18.5239C13.675 18.5239 13.8614 18.1744 13.8614 17.5919V15.4251C13.8614 14.7261 14.0012 14.6096 14.4905 14.6096C14.84 14.6096 15.4691 14.796 16.8904 16.1707C18.5214 17.8017 18.801 18.5472 19.7096 18.5472H22.1095C22.8085 18.5472 23.1347 18.1977 22.9483 17.522C22.4358 16.475 21.7505 15.5219 20.9212 14.7028C20.362 14.0504 19.5232 13.3281 19.2669 12.9786C18.9174 12.5126 19.0106 12.3262 19.2669 11.9068C19.2436 11.9068 22.1794 7.75949 22.4823 6.3615Z" fill="#231F20" fill-opacity="0.5"/>
</svg>
